P3
10 10
255
194 241 246 194 241 246 194 241 246 194 241 246 194 241 246 194 241 246 194 241 246 194 241 246 194 241 246 194 241 246 194 241 246 194 241 246 194 241 246 194 241 246 194 241 246 194 241 246 194 241 246 194 241 246 194 241 246 194 241 246 194 241 246 194 241 246 194 241 246 240 67 0 194 241 246 194 241 246 240 67 0 194 241 246 194 241 246 194 241 246 194 241 246 194 241 246 240 67 0 194 241 246 194 241 246 194 241 246 194 241 246 240 67 0 194 241 246 194 241 246 194 241 246 240 67 0 244 240 172 244 240 172 244 240 172 244 240 172 244 240 172 194 241 246 240 67 0 194 241 246 194 241 246 194 241 246 244 240 172 78 129 250 244 240 172 244 240 172 78 129 250 194 241 246 194 241 246 194 241 246 194 241 246 194 241 246 244 240 172 244 240 172 244 240 172 244 240 172 244 240 172 194 241 246 194 241 246 194 241 246 194 241 246 194 241 246 244 240 172 244 240 172 192 192 192 244 240 172 244 240 172 194 241 246 194 241 246 194 241 246 194 241 246 194 241 246 194 241 246 194 241 246 194 241 246 194 241 246 194 241 246 194 241 246 194 241 246 194 241 246 194 241 246 194 241 246 194 241 246 194 241 246 194 241 246 194 241 246 194 241 246 194 241 246 194 241 246 194 241 246 