P3
64 48
255
85 0 0 52 50 48 48 49 48 52 50 48 48 49 48 52 50 48 48 49 48 52 50 48 48 49 48 52 50 48 48 49 48 52 50 48 48 49 48 52 50 48 48 49 48 52 50 48 48 49 48 52 50 48 48 49 48 52 50 48 48 49 48 52 50 48 48 49 48 52 50 48 48 49 48 52 50 48 48 49 48 52 50 48 48 49 48 52 50 48 48 49 48 52 50 48 48 49 48 52 50 48 48 49 48 52 50 48 48 49 48 52 50 48 48 49 48 52 50 48 48 49 48 52 50 48 48 49 48 52 50 48 48 49 48 52 50 48 48 49 48 52 50 48 48 49 48 52 50 48 48 49 48 52 50 48 48 49 48 52 50 48 48 49 48 52 50 48 48 49 48 52 50 48 48 49 48 52 50 48 48 49 48 52 50 48 48 49 48 52 50 48 48 49 48 52 50 48 48 49 48 52 50 48 48 49 48 52 50 48 48 49 48 52 50 48 48 49 48 52 50 48 48 49 48 52 50 48 48 49 48 52 50 48 48 49 48 52 50 48 48 49 48 52 50 48 48 49 48 52 50 48 48 49 48 52 50 48 48 49 48 52 50 48 48 49 48 52 50 48 48 49 48 52 50 48 48 49 48 52 50 48 48 49 48 52 50 48 48 49 48 52 50 48 48 49 48 52 50 48 48 49 48 52 50 48 48 49 48 52 50 48 48 49 48 52 50 48 48 49 48 52 50 48 48 49 48 52 50 48 48 49 48 52 50 48 48 49 48 52 50 48 48 49 48 52 50 48 48 49 48 52 50 48 48 49 48 52 50 48 48 49 48 52 50 48 48 49 48 52 50 48 48 49 48 52 50 48 48 49 48 52 50 48 48 49 48 52 50 48 48 49 48 52 50 48 48 49 48 52 50 48 48 49 48 52 50 48 48 49 48 52 50 48 48 49 48 52 50 48 48 49 48 52 50 48 48 49 48 52 50 48 48 49 48 52 50 48 48 49 48 52 50 48 48 49 48 52 50 48 48 49 48 52 50 48 48 49 48 52 50 48 48 49 48 52 50 48 48 49 48 52 50 48 48 49 48 52 50 48 48 49 48 52 50 48 48 49 48 52 50 48 48 49 48 52 50 48 48 49 48 52 50 48 48 49 48 52 50 48 48 49 48 52 50 48 48 49 48 52 50 48 48 49 48 52 50 48 48 49 48 52 50 48 48 49 48 52 50 48 48 49 48 52 50 48 48 49 48 52 50 48 48 49 48 52 50 48 48 49 48 52 50 48 48 49 48 52 50 48 48 49 48 52 50 48 48 49 48 52 50 48 48 49 48 52 50 48 48 49 48 52 50 48 48 49 48 52 50 48 48 49 48 52 50 48 48 49 48 52 50 48 48 49 48 52 50 48 48 49 48 52 50 48 48 49 48 52 50 48 48 49 48 52 50 48 48 49 48 52 50 48 48 49 48 52 50 48 48 49 48 52 50 48 48 49 48 52 50 48 48 49 48 52 50 48 48 49 48 52 50 48 48 49 48 52 50 48 48 49 48 52 50 48 48 49 48 52 50 48 48 49 48 52 50 48 48 49 48 52 50 48 48 49 48 52 50 48 48 49 48 52 50 48 48 49 48 52 50 48 48 49 48 52 50 48 48 49 48 52 50 48 48 49 48 52 50 48 48 49 48 52 50 48 48 49 48 52 50 48 48 49 48 52 50 48 48 49 48 52 50 48 48 49 48 52 50 48 48 49 48 52 50 48 48 49 48 52 50 48 48 49 48 52 50 48 48 49 48 52 50 48 48 49 48 52 50 48 48 49 48 52 50 48 48 49 48 52 50 48 48 49 48 52 50 48 48 49 48 52 50 48 48 49 48 52 50 48 48 49 48 52 50 48 48 49 48 52 50 48 48 49 48 52 50 48 48 49 48 52 50 48 48 49 48 52 50 48 48 49 48 52 50 48 0 128 255 0 128 255 0 128 255 0 128 255 0 128 255 0 128 255 0 128 255 0 128 255 0 128 255 0 128 255 0 128 255 0 128 255 0 128 255 0 128 255 0 128 255 0 128 255 0 128 255 0 128 255 48 49 48 52 50 48 48 49 48 52 50 48 48 49 48 52 50 48 48 49 48 52 50 48 48 49 48 52 50 48 48 49 48 52 50 48 48 49 48 52 50 48 48 49 48 52 50 48 48 49 48 52 50 48 48 49 48 52 50 48 48 49 48 52 50 48 48 49 48 52 50 48 48 49 48 52 50 48 48 49 48 52 50 48 48 49 48 52 50 48 48 49 48 52 50 48 48 49 48 52 50 48 48 49 48 52 50 48 48 49 48 52 50 48 48 49 48 52 50 48 48 49 48 52 50 48 48 49 48 52 50 48 48 49 48 52 50 48 0 128 255 0 128 255 0 128 255 0 128 255 0 128 255 0 128 255 0 128 255 0 128 255 0 128 255 0 128 255 0 128 255 0 128 255 0 128 255 0 128 255 0 128 255 0 128 255 0 128 255 0 128 255 48 49 48 52 50 48 48 49 48 52 50 48 48 49 48 52 50 48 48 49 48 52 50 48 48 49 48 52 50 48 48 49 48 52 50 48 48 49 48 52 50 48 48 49 48 52 50 48 48 49 48 52 50 48 48 49 48 52 50 48 48 49 48 52 50 48 48 49 48 52 50 48 48 49 48 52 50 48 48 49 48 52 50 48 48 49 48 52 50 48 48 49 48 52 50 48 48 49 48 52 50 48 48 49 48 52 50 48 48 49 48 52 50 48 48 49 48 52 50 48 48 49 48 52 50 48 48 49 48 52 50 48 48 49 48 52 50 48 0 128 255 0 128 255 0 128 255 0 128 255 0 128 255 0 128 255 0 128 255 0 128 255 0 128 255 0 128 255 0 128 255 0 128 255 0 128 255 0 128 255 0 128 255 0 128 255 0 128 255 0 128 255 48 49 48 52 50 48 48 49 48 52 50 48 48 49 48 52 50 48 48 49 48 52 50 48 48 49 48 52 50 48 48 49 48 52 50 48 48 49 48 52 50 48 48 49 48 52 50 48 48 49 48 52 50 48 48 49 48 52 50 48 48 49 48 52 50 48 48 49 48 52 50 48 48 49 48 52 50 48 48 49 48 52 50 48 48 49 48 52 50 48 48 49 48 52 50 48 48 49 48 52 50 48 48 49 48 52 50 48 48 49 48 52 50 48 48 49 48 52 50 48 48 49 48 52 50 48 48 49 48 52 50 48 48 49 48 52 50 48 0 128 255 0 128 255 0 128 255 0 128 255 0 128 255 0 128 255 0 128 255 0 128 255 0 128 255 0 128 255 0 128 255 0 128 255 0 128 255 0 128 255 0 128 255 0 128 255 0 128 255 0 128 255 48 49 48 52 50 48 48 49 48 52 50 48 48 49 48 52 50 48 48 49 48 52 50 48 48 49 48 52 50 48 48 49 48 52 50 48 48 49 48 52 50 48 48 49 48 52 50 48 48 49 48 52 50 48 48 49 48 52 50 48 48 49 48 52 50 48 48 49 48 52 50 48 48 49 48 52 50 48 48 49 48 52 50 48 48 49 48 52 50 48 48 49 48 52 50 48 48 49 48 52 50 48 48 49 48 52 50 48 48 49 48 52 50 48 48 49 48 52 50 48 48 49 48 52 50 48 48 49 48 52 50 48 48 49 48 52 50 48 48 49 48 52 50 48 48 49 48 52 50 48 48 49 48 52 50 48 48 49 48 52 50 48 48 49 48 52 50 48 48 49 48 52 50 48 48 49 48 52 50 48 48 49 48 52 50 48 48 49 48 52 50 48 48 49 48 52 50 48 48 49 48 52 50 48 48 49 48 52 50 48 48 49 48 52 50 48 48 49 48 52 50 48 48 49 48 52 50 48 48 49 48 52 50 48 48 49 48 52 50 48 48 49 48 52 50 48 48 49 48 52 50 48 48 49 48 52 50 48 48 49 48 52 50 48 48 49 48 52 50 48 48 49 48 52 50 48 48 49 48 52 50 48 48 49 48 52 50 48 48 49 48 52 50 48 48 49 48 52 50 48 48 49 48 52 50 48 48 49 48 52 50 48 48 49 48 52 50 48 48 49 48 52 50 48 48 49 48 52 50 48 48 49 48 52 50 48 48 49 48 52 50 48 48 49 48 52 50 48 48 49 48 52 50 48 48 49 48 52 50 48 48 49 48 52 50 48 48 49 48 52 50 48 48 49 48 52 50 48 48 49 48 52 50 48 48 49 48 52 50 48 48 49 48 52 50 48 48 49 48 52 50 48 48 49 48 52 50 48 48 49 48 52 50 48 48 49 48 52 50 48 48 49 48 52 50 48 48 49 48 52 50 48 48 49 48 52 50 48 48 49 48 52 50 48 48 49 48 52 50 48 48 49 48 52 50 48 48 49 48 52 50 48 48 49 48 52 50 48 48 49 48 52 50 48 48 49 48 52 50 48 48 49 48 52 50 48 48 49 48 52 50 48 48 49 48 52 50 48 48 49 48 52 50 48 48 49 48 52 50 48 48 49 48 52 50 48 48 49 48 52 50 48 48 49 48 52 50 48 48 49 48 52 50 48 48 49 48 52 50 48 48 49 48 52 50 48 48 49 48 52 50 48 48 49 48 52 50 48 48 49 48 52 50 48 48 49 48 52 50 48 48 49 48 52 50 48 48 49 48 52 50 48 48 49 48 52 50 48 48 49 48 52 50 48 48 49 48 52 50 48 48 49 48 52 50 48 48 49 48 52 50 48 48 49 48 52 50 48 48 49 48 52 50 48 48 49 48 52 50 48 48 49 48 52 50 48 48 49 48 52 50 48 48 49 48 52 50 48 48 49 48 52 50 48 48 49 48 52 50 48 48 49 48 52 50 48 48 49 48 52 50 48 48 49 48 52 50 48 48 49 48 52 50 48 48 49 48 52 50 48 48 49 48 52 50 48 48 49 48 52 50 48 48 49 48 52 50 48 48 49 48 52 50 48 48 49 48 52 50 48 48 49 48 52 50 48 48 49 48 52 50 48 48 49 48 52 50 48 48 49 48 52 50 48 48 49 48 52 50 48 48 49 48 52 50 48 48 49 48 52 50 48 48 49 48 52 50 48 48 49 48 52 50 48 48 49 48 52 50 48 48 49 48 52 50 48 48 49 48 52 50 48 48 49 48 52 50 48 48 49 48 52 50 48 48 49 48 52 50 48 48 49 48 52 50 48 48 49 48 52 50 48 48 49 48 52 50 48 48 49 48 52 50 48 48 49 48 52 50 48 48 49 48 52 50 48 48 49 48 52 50 48 48 49 48 52 50 48 48 49 48 52 50 48 48 49 48 52 50 48 48 49 48 52 50 48 48 49 48 52 50 48 48 49 48 52 50 48 48 49 48 52 50 48 48 49 48 52 50 48 48 49 48 52 50 48 48 49 48 52 50 48 48 49 48 52 50 48 48 49 48 52 50 48 48 49 48 52 50 48 48 49 48 52 50 48 48 49 48 52 50 48 48 49 48 52 50 48 48 49 48 52 50 48 48 49 48 52 50 48 48 49 48 52 50 48 48 49 48 52 50 48 48 49 48 52 50 48 48 49 48 52 50 48 48 49 48 52 50 48 48 49 48 52 50 48 48 49 48 52 50 48 48 49 48 52 50 48 48 49 48 52 50 48 48 49 48 52 50 48 48 49 48 52 50 48 48 49 48 52 50 48 48 49 48 52 50 48 48 49 48 52 50 48 48 49 48 52 50 48 48 49 48 52 50 48 48 49 48 52 50 48 48 49 48 52 50 48 48 49 48 52 50 48 48 49 48 52 50 48 48 49 48 52 50 48 48 49 48 52 50 48 48 49 48 52 50 48 48 49 48 52 50 48 48 49 48 52 50 48 48 49 48 52 50 48 48 49 48 52 50 48 48 49 48 52 50 48 48 49 48 52 50 48 48 49 48 52 50 48 48 49 48 52 50 48 48 49 48 52 50 48 48 49 48 52 50 48 48 49 48 52 50 48 48 49 48 52 50 48 48 49 48 52 50 48 48 49 48 52 50 48 48 49 48 52 50 48 48 49 48 52 50 48 48 49 48 52 50 48 48 49 48 52 50 48 255 255 255 255 255 255 255 255 255 255 255 255 255 255 255 255 255 255 255 255 255 255 255 255 255 255 255 255 255 255 255 255 255 255 255 255 255 255 255 255 255 255 255 255 255 255 255 255 48 49 48 52 50 48 48 49 48 52 50 48 48 49 48 52 50 48 48 49 48 52 50 48 48 49 48 52 50 48 48 49 48 52 50 48 48 49 48 52 50 48 48 49 48 52 50 48 48 49 48 52 50 48 48 49 48 52 50 48 48 49 48 52 50 48 48 49 48 52 50 48 48 49 48 52 50 48 48 49 48 52 50 48 48 49 48 52 50 48 48 49 48 52 50 48 48 49 48 52 50 48 48 49 48 52 50 48 48 49 48 52 50 48 48 49 48 52 50 48 48 49 48 52 50 48 48 49 48 52 50 48 48 49 48 52 50 48 48 49 48 52 50 48 255 255 255 255 255 255 255 255 255 255 255 255 255 255 255 255 255 255 255 255 255 255 255 255 255 255 255 255 255 255 255 255 255 255 255 255 255 255 255 255 255 255 255 255 255 255 255 255 48 49 48 52 50 48 48 49 48 52 50 48 48 49 48 52 50 48 48 49 48 52 50 48 48 49 48 52 50 48 48 49 48 52 50 48 48 49 48 52 50 48 48 49 48 52 50 48 48 49 48 52 50 48 48 49 48 52 50 48 48 49 48 52 50 48 48 49 48 52 50 48 48 49 48 52 50 48 48 49 48 52 50 48 48 49 48 52 50 48 48 49 48 52 50 48 48 49 48 52 50 48 48 49 48 52 50 48 48 49 48 52 50 48 48 49 48 52 50 48 48 49 48 52 50 48 48 49 48 52 50 48 48 49 48 52 50 48 48 49 48 52 50 48 255 255 255 255 255 255 255 255 255 255 255 255 255 255 255 255 255 255 255 255 255 255 255 255 255 255 255 255 255 255 255 255 255 255 255 255 255 255 255 255 255 255 255 255 255 255 255 255 48 49 48 52 50 48 48 49 48 52 50 48 48 49 48 52 50 48 48 49 48 52 50 48 48 49 48 52 50 48 48 49 48 52 50 48 48 49 48 52 50 48 48 49 48 52 50 48 48 49 48 52 50 48 48 49 48 52 50 48 48 49 48 52 50 48 48 49 48 52 50 48 48 49 48 52 50 48 48 49 48 52 50 48 48 49 48 52 50 48 48 49 48 52 50 48 48 49 48 52 50 48 48 49 48 52 50 48 48 49 48 52 50 48 48 49 48 52 50 48 48 49 48 52 50 48 48 49 48 52 50 48 48 49 48 52 50 48 48 49 48 52 50 48 255 255 255 255 255 255 255 255 255 255 255 255 255 255 255 255 255 255 255 255 255 255 255 255 255 255 255 255 255 255 255 255 255 255 255 255 255 255 255 255 255 255 255 255 255 255 255 255 48 49 48 52 50 48 48 49 48 52 50 48 48 49 48 52 50 48 48 49 48 52 50 48 48 49 48 52 50 48 48 49 48 52 50 48 48 49 48 52 50 48 48 49 48 52 50 48 48 49 48 52 50 48 48 49 48 52 50 48 48 49 48 52 50 48 48 49 48 52 50 48 48 49 48 52 50 48 48 49 48 52 50 48 48 49 48 52 50 48 48 49 48 52 50 48 48 49 48 52 50 48 48 49 48 52 50 48 48 49 48 52 50 48 48 49 48 52 50 48 48 49 48 52 50 48 48 49 48 52 50 48 48 49 48 52 50 48 48 49 48 52 50 48 255 255 255 255 255 255 255 255 255 255 255 255 255 255 255 255 255 255 255 255 255 255 255 255 255 255 255 255 255 255 255 255 255 255 255 255 255 255 255 255 255 255 255 255 255 255 255 255 48 48 49 48 52 50 48 48 49 48 52 50 48 48 49 48 52 50 48 48 49 48 52 50 48 48 49 48 52 50 48 48 49 48 52 50 48 48 49 48 52 50 48 48 49 48 52 50 48 48 49 48 52 50 48 48 49 48 52 50 48 48 49 48 52 50 48 48 49 48 52 50 48 48 49 48 52 50 48 48 49 48 52 50 48 48 49 48 52 50 48 48 49 48 52 50 48 48 49 48 52 50 48 48 49 48 52 50 48 48 49 48 52 50 48 48 49 48 52 50 48 48 49 48 52 50 48 48 49 48 52 50 48 48 49 48 52 50 48 48 49 48 52 50 255 255 255 255 255 255 255 255 255 255 255 255 255 255 255 255 255 255 255 255 255 255 255 255 255 255 255 255 255 255 255 255 255 255 255 255 255 255 255 255 255 255 255 255 255 255 255 255 48 48 49 48 52 50 48 48 49 48 52 50 48 48 49 48 52 50 48 48 49 48 52 50 48 48 49 48 52 50 48 48 49 48 52 50 48 48 49 48 52 50 48 48 49 48 52 50 48 48 49 48 52 50 48 48 49 48 52 50 48 48 49 48 52 50 48 48 49 48 52 50 48 48 49 48 52 50 48 48 49 48 52 50 48 48 49 48 52 50 48 48 49 48 52 50 48 48 49 48 52 50 48 48 49 48 52 50 48 48 49 48 52 50 48 48 49 48 52 50 48 48 49 48 52 50 48 48 49 48 52 50 48 48 49 48 52 50 48 48 49 48 52 50 255 255 255 255 255 255 255 255 255 255 255 255 255 255 255 255 255 255 255 255 255 255 255 255 255 255 255 255 255 255 255 255 255 255 255 255 255 255 255 255 255 255 255 255 255 255 255 255 48 48 49 48 52 50 48 48 49 48 52 50 48 48 49 48 52 50 48 48 49 48 52 50 48 48 49 48 52 50 48 48 49 48 52 50 48 48 49 48 52 50 48 48 49 48 52 50 48 48 49 48 52 50 48 48 49 48 52 50 48 48 49 48 52 50 48 48 49 48 52 50 48 48 49 48 52 50 48 48 49 48 52 50 48 48 49 48 52 50 48 48 49 48 52 50 48 48 49 48 52 50 48 48 49 48 52 50 48 48 49 48 52 50 48 48 49 48 52 50 48 48 49 48 52 50 48 48 49 48 52 50 48 48 49 48 52 50 48 48 49 48 52 50 255 255 255 255 255 255 255 255 255 255 255 255 255 255 255 255 255 255 255 255 255 255 255 255 255 255 255 255 255 255 255 255 255 255 255 255 255 255 255 255 255 255 255 255 255 255 255 255 48 48 49 48 52 50 48 48 49 48 52 50 48 48 49 48 52 50 48 48 49 48 52 50 48 48 49 48 52 50 48 48 49 48 52 50 48 48 49 48 52 50 48 48 49 48 52 50 48 48 49 48 52 50 48 48 49 48 52 50 48 48 49 48 52 50 48 48 49 48 52 50 48 48 49 48 52 50 48 48 49 48 52 50 48 48 49 48 52 50 48 48 49 48 52 50 48 48 49 48 52 50 48 48 49 48 52 50 48 48 49 48 52 50 48 48 49 48 52 50 48 48 49 48 52 50 48 48 49 48 52 50 48 48 49 48 52 50 48 48 49 48 52 50 255 255 255 255 255 255 255 255 255 255 255 255 255 255 255 255 255 255 255 255 255 255 255 255 255 255 255 255 255 255 255 255 255 255 255 255 255 255 255 255 255 255 255 255 255 255 255 255 48 48 49 48 52 50 48 48 49 48 52 50 48 48 49 48 52 50 48 48 49 48 52 50 48 48 49 48 52 50 48 48 49 48 52 50 48 48 49 48 52 50 48 48 49 48 52 50 48 48 49 48 52 50 48 48 49 48 52 50 48 48 49 48 52 50 48 48 49 48 52 50 48 48 49 48 52 50 48 48 49 48 52 50 48 48 49 48 52 50 48 48 49 48 52 50 48 48 49 48 52 50 48 48 49 48 52 50 48 48 49 48 52 50 48 48 49 48 52 50 48 48 49 48 52 50 48 48 49 48 52 50 48 48 49 48 52 50 48 48 49 48 52 50 255 255 255 255 255 255 255 255 255 255 255 255 255 255 255 255 255 255 255 255 255 255 255 255 255 255 255 255 255 255 255 255 255 255 255 255 255 255 255 255 255 255 255 255 255 255 255 255 48 48 49 48 52 50 48 48 49 48 52 50 48 48 49 48 52 50 48 48 49 48 52 50 48 48 49 48 52 50 48 48 49 48 52 50 48 48 49 48 52 50 48 48 49 48 52 50 48 48 49 48 52 50 48 48 49 48 52 50 48 48 49 48 52 50 48 48 49 48 52 50 48 48 49 48 52 50 48 48 49 48 52 50 48 48 49 48 52 50 48 48 49 48 52 50 48 48 49 48 52 50 48 48 49 48 52 50 48 48 49 48 52 50 48 48 49 48 52 50 48 48 49 48 52 50 48 48 49 48 52 50 48 48 49 48 52 50 48 48 49 48 52 50 255 255 255 255 255 255 255 255 255 255 255 255 255 255 255 255 255 255 255 255 255 255 255 255 255 255 255 255 255 255 255 255 255 255 255 255 255 255 255 255 255 255 255 255 255 255 255 255 48 48 49 48 52 50 48 48 49 48 52 50 48 48 49 48 52 50 48 48 49 48 52 50 48 48 49 48 52 50 48 48 49 48 52 50 48 48 49 48 52 50 48 48 49 48 52 50 48 48 49 48 52 50 48 48 49 48 52 50 48 48 49 48 52 50 48 48 49 48 52 50 48 48 49 48 52 50 48 48 49 48 52 50 48 48 49 48 52 50 48 48 49 48 52 50 48 48 49 48 52 50 48 48 49 48 52 50 48 48 49 48 52 50 48 48 49 48 52 50 48 48 49 48 52 50 48 48 49 48 52 50 48 48 49 48 52 50 48 48 49 48 52 50 255 255 255 255 255 255 255 255 255 255 255 255 255 255 255 255 255 255 255 255 255 255 255 255 255 255 255 255 255 255 255 255 255 255 255 255 255 255 255 255 255 255 255 255 255 255 255 255 48 48 49 48 52 50 48 48 49 48 52 50 48 48 49 48 52 50 48 48 49 48 52 50 48 48 49 48 52 50 48 48 49 48 52 50 48 48 49 48 52 50 48 48 49 48 52 50 48 48 49 48 52 50 48 48 49 48 52 50 48 48 49 48 52 50 48 48 49 48 52 50 48 48 49 48 52 50 48 48 49 48 52 50 48 48 49 48 52 50 48 48 49 48 52 50 48 48 49 48 52 50 48 48 49 48 52 50 48 48 49 48 52 50 48 48 49 48 52 50 48 48 49 48 52 50 48 48 49 48 52 50 48 48 49 48 52 50 48 48 49 48 52 50 255 255 255 255 255 255 255 255 255 255 255 255 255 255 255 255 255 255 255 255 255 255 255 255 255 255 255 255 255 255 255 255 255 255 255 255 255 255 255 255 255 255 255 255 255 255 255 255 48 48 49 48 52 50 48 48 49 48 52 50 48 48 49 48 52 50 48 48 49 48 52 50 48 48 49 48 52 50 48 48 49 48 52 50 48 48 49 48 52 50 48 48 49 48 52 50 48 48 49 48 52 50 48 48 49 48 52 50 48 48 49 48 52 50 48 48 49 48 52 50 48 48 49 48 52 50 48 48 49 48 52 50 48 48 49 48 52 50 48 48 49 48 52 50 48 48 49 48 52 50 48 48 49 48 52 50 48 48 49 48 52 50 48 48 49 48 52 50 48 48 49 48 52 50 48 48 49 48 52 50 48 48 49 48 52 50 48 48 49 48 52 50 255 255 255 255 255 255 255 255 255 255 255 255 255 255 255 255 255 255 255 255 255 255 255 255 255 255 255 255 255 255 255 255 255 255 255 255 255 255 255 255 255 255 255 255 255 255 255 255 48 48 49 48 52 50 48 48 49 48 52 50 48 48 49 48 52 50 48 48 49 48 52 50 48 48 49 48 52 50 48 48 49 48 52 50 48 48 49 48 52 50 48 48 49 48 52 50 48 48 49 48 52 50 48 48 49 48 52 50 48 48 49 48 52 50 48 48 49 48 52 50 48 48 49 48 52 50 48 48 49 48 52 50 48 48 49 48 52 50 48 48 49 48 52 50 48 48 49 48 52 50 48 48 49 48 52 50 48 48 49 48 52 50 48 48 49 48 52 50 48 48 49 48 52 50 48 48 49 48 52 50 48 48 49 48 52 50 48 48 49 48 52 50 255 255 255 255 255 255 255 255 255 255 255 255 255 255 255 255 255 255 255 255 255 255 255 255 255 255 255 255 255 255 255 255 255 255 255 255 255 255 255 255 255 255 255 255 255 255 255 255 48 48 49 48 52 50 48 48 49 48 52 50 48 48 49 48 52 50 48 48 49 48 52 50 48 48 49 48 52 50 48 48 49 48 52 50 48 48 49 48 52 50 48 48 49 48 52 50 48 48 49 48 52 50 48 48 49 48 52 50 48 48 49 48 52 50 48 48 49 48 52 50 48 48 49 48 52 50 48 48 49 48 52 50 48 48 49 48 52 50 48 48 49 48 52 50 48 48 49 48 52 50 48 48 49 48 52 50 48 48 49 48 52 50 48 48 49 48 52 50 48 48 49 48 52 50 48 48 49 48 52 50 48 48 49 48 52 50 48 48 49 48 52 50 255 255 255 255 255 255 255 255 255 255 255 255 255 255 255 255 255 255 255 255 255 255 255 255 255 255 255 255 255 255 255 255 255 255 255 255 255 255 255 255 255 255 255 255 255 255 255 255 48 48 49 48 52 50 48 48 49 48 52 50 48 48 49 48 52 50 48 48 49 48 52 50 48 48 49 48 52 50 48 48 49 48 52 50 48 48 49 48 52 50 48 48 49 48 52 50 48 48 49 48 52 50 48 48 49 48 52 50 48 48 49 48 52 50 48 48 49 48 52 50 48 48 49 48 52 50 48 48 49 48 52 50 48 48 49 48 52 50 48 48 49 48 52 50 48 48 49 48 52 50 48 48 49 48 52 50 48 48 49 48 52 50 48 48 49 48 52 50 48 48 49 48 52 50 48 48 49 48 52 50 48 48 49 48 52 50 48 48 49 48 52 50 255 255 255 255 255 255 255 255 255 255 255 255 255 255 255 255 255 255 255 255 255 255 255 255 255 255 255 255 255 255 255 255 255 255 255 255 255 255 255 255 255 255 255 255 255 255 255 255 48 48 49 48 52 50 48 48 49 48 52 50 48 48 49 48 52 50 48 48 49 48 52 50 48 48 49 48 52 50 48 48 49 48 52 50 48 48 49 48 52 50 48 48 49 48 52 50 48 48 49 48 52 50 48 48 49 48 52 50 48 48 49 48 52 50 48 48 49 48 52 50 48 48 49 48 52 50 48 48 49 48 52 50 48 48 49 48 52 50 48 48 49 48 52 50 48 48 49 48 52 50 48 48 49 48 52 50 48 48 49 48 52 50 48 48 49 48 52 50 48 48 49 48 52 50 48 48 49 48 52 50 48 48 49 48 52 50 48 48 49 48 52 50 255 255 255 255 255 255 255 255 255 255 255 255 255 255 255 255 255 255 255 255 255 255 255 255 255 255 255 255 255 255 255 255 255 255 255 255 255 255 255 255 255 255 255 255 255 255 255 255 48 48 49 48 52 50 48 48 49 48 52 50 48 48 49 48 52 50 48 48 49 48 52 50 48 48 49 48 52 50 48 48 49 48 52 50 48 48 49 48 52 50 48 48 49 48 52 50 48 48 49 48 52 50 48 48 49 48 52 50 48 48 49 48 52 50 48 48 49 48 52 50 48 48 49 48 52 50 48 48 49 48 52 50 48 48 49 48 52 50 48 48 49 48 52 50 48 48 49 48 52 50 48 48 49 48 52 50 48 48 49 48 52 50 48 48 49 48 52 50 48 48 49 48 52 50 48 48 49 48 52 50 48 48 49 48 52 50 48 48 49 48 52 50 255 255 255 255 255 255 255 255 255 255 255 255 255 255 255 255 255 255 255 255 255 255 255 255 255 255 255 255 255 255 255 255 255 255 255 255 255 255 255 255 255 255 255 255 255 255 255 255 48 48 49 48 52 50 48 48 49 48 52 50 48 48 49 48 52 50 48 48 49 48 52 50 48 48 49 48 52 50 48 48 49 48 52 50 48 48 49 48 52 50 48 48 49 48 52 50 48 48 49 48 52 50 48 48 49 48 52 50 48 48 49 48 52 50 48 48 49 48 52 50 48 48 49 48 52 50 48 48 49 48 52 50 48 48 49 48 52 50 48 48 49 48 52 50 48 48 49 48 52 50 48 48 49 48 52 50 48 48 49 48 52 50 48 48 49 48 52 50 48 48 49 48 52 50 48 48 49 48 52 50 48 48 49 48 52 50 48 48 49 48 52 50 255 255 255 255 255 255 255 255 255 255 255 255 255 255 255 255 255 255 255 255 255 255 255 255 255 255 255 255 255 255 255 255 255 255 255 255 255 255 255 255 255 255 255 255 255 255 255 255 48 48 49 48 52 50 48 48 49 48 52 50 48 48 49 48 52 50 48 48 49 48 52 50 48 48 49 48 52 50 48 48 49 48 52 50 48 48 49 48 52 50 48 48 49 48 52 50 48 48 49 48 52 50 48 48 49 48 52 50 48 48 49 48 52 50 48 48 49 48 52 50 48 48 49 48 52 50 48 48 49 48 52 50 48 48 49 48 52 50 48 48 49 48 52 50 48 48 49 48 52 50 48 48 49 48 52 50 48 48 49 48 52 50 48 48 49 48 52 50 48 48 49 48 52 50 48 48 49 48 52 50 48 48 49 48 52 50 48 48 49 48 52 50 255 255 255 255 255 255 255 255 255 255 255 255 255 255 255 255 255 255 255 255 255 255 255 255 255 255 255 255 255 255 255 255 255 255 255 255 255 255 255 255 255 255 255 255 255 255 255 255 48 48 49 48 52 50 48 48 49 48 52 50 48 48 49 48 52 50 48 48 49 48 52 50 48 48 49 48 52 50 48 48 49 48 52 50 48 48 49 48 52 50 48 48 49 48 52 50 48 48 49 48 52 50 48 48 49 48 52 50 48 48 49 48 52 50 48 48 49 48 52 50 48 48 49 48 52 50 48 48 49 48 52 50 48 48 49 48 52 50 48 48 49 48 52 50 48 48 49 48 52 50 48 48 49 48 52 50 48 48 49 48 52 50 48 48 49 48 52 50 48 48 49 48 52 50 48 48 49 48 52 50 48 48 49 48 52 50 48 48 49 48 52 50 255 255 255 255 255 255 255 255 255 255 255 255 255 255 255 255 255 255 255 255 255 255 255 255 255 255 255 255 255 255 255 255 255 255 255 255 255 255 255 255 255 255 255 255 255 255 255 255 48 48 49 48 52 50 48 48 49 48 52 50 48 48 49 48 52 50 48 48 49 48 52 50 48 48 49 48 52 50 48 48 49 48 52 50 48 48 49 48 52 50 48 48 49 48 52 50 48 48 49 48 52 50 48 48 49 48 52 50 48 48 49 48 52 50 48 48 49 48 52 50 48 48 49 48 52 50 48 48 49 48 52 50 48 48 49 48 52 50 48 48 49 48 52 50 48 48 49 48 52 50 48 48 49 48 52 50 48 48 49 48 52 50 48 48 49 48 52 50 48 48 49 48 52 50 48 48 49 48 52 50 48 48 49 48 52 50 48 48 49 48 52 50 255 255 255 255 255 255 255 255 255 255 255 255 255 255 255 255 255 255 255 255 255 255 255 255 255 255 255 255 255 255 255 255 255 255 255 255 255 255 255 255 255 255 255 255 255 255 255 255 48 48 49 48 52 50 48 48 49 48 52 50 48 48 49 48 52 50 48 48 49 48 52 50 48 48 49 48 52 50 48 48 49 48 52 50 48 48 49 48 52 50 48 48 49 48 52 50 48 48 49 48 52 50 48 48 49 48 52 50 48 48 49 48 52 50 48 48 49 48 52 50 48 48 49 48 52 50 48 48 49 48 52 50 48 48 49 48 52 50 48 48 49 48 52 50 48 48 49 48 52 50 48 48 49 48 52 50 48 48 49 48 52 50 48 48 49 48 52 50 48 48 49 48 52 50 48 48 49 48 52 50 48 48 49 48 52 50 48 48 49 48 52 50 255 255 255 255 255 255 255 255 255 255 255 255 255 255 255 255 255 255 255 255 255 255 255 255 255 255 255 255 255 255 255 255 255 255 255 255 255 255 255 255 255 255 255 255 255 255 255 255 48 48 49 48 52 50 48 48 49 48 52 50 48 48 49 48 52 50 48 48 49 48 52 50 48 48 49 48 52 50 48 48 49 48 52 50 48 48 49 48 52 50 48 48 49 48 52 50 48 48 49 48 52 50 48 48 49 48 52 50 48 48 49 48 52 50 48 48 49 48 52 50 48 48 49 48 52 50 48 48 49 48 52 50 48 48 49 48 52 50 48 48 49 48 52 50 48 48 49 48 52 50 48 48 49 48 52 50 48 48 49 48 52 50 48 48 49 48 52 50 48 48 49 48 52 50 48 48 49 48 52 50 48 48 49 48 52 50 48 48 49 48 52 50 255 255 255 255 255 255 255 255 255 255 255 255 255 255 255 255 255 255 255 255 255 255 255 255 255 255 255 255 255 255 255 255 255 255 255 255 255 255 255 255 255 255 255 255 255 255 255 255 48 48 49 48 52 50 48 48 49 48 52 50 48 48 49 48 52 50 48 48 49 48 52 50 48 48 49 48 52 50 48 48 49 48 52 50 48 48 49 48 52 50 48 48 49 48 52 50 48 48 49 48 52 50 48 48 49 48 52 50 48 48 49 48 52 50 48 48 49 48 52 50 48 48 49 48 52 50 48 48 49 48 52 50 48 48 49 48 52 50 48 48 49 48 52 50 48 48 49 48 52 50 48 48 49 48 52 50 48 48 49 48 52 50 48 48 49 48 52 50 48 48 49 48 52 50 48 48 49 48 52 50 48 48 49 48 52 50 48 48 49 48 52 50 255 255 255 255 255 255 255 255 255 255 255 255 255 255 255 255 255 255 255 255 255 255 255 255 255 255 255 255 255 255 255 255 255 255 255 255 255 255 255 255 255 255 255 255 255 255 255 255 48 48 49 48 52 50 48 48 49 48 52 50 48 48 49 48 52 50 48 48 49 48 52 50 48 48 49 48 52 50 48 48 49 48 52 50 48 48 49 48 52 50 48 48 49 48 52 50 48 48 49 48 52 50 48 48 49 48 52 50 48 48 49 48 52 50 48 48 49 48 52 50 48 48 49 48 52 50 48 48 49 48 52 50 48 48 49 48 52 50 48 48 49 48 52 50 48 48 49 48 52 50 48 48 49 48 52 50 48 48 49 48 52 50 48 48 49 48 52 50 48 48 49 48 52 50 48 48 49 48 52 50 48 48 49 48 52 50 48 48 49 48 52 50 255 255 255 255 255 255 255 255 255 255 255 255 255 255 255 255 255 255 255 255 255 255 255 255 255 255 255 255 255 255 255 255 255 255 255 255 255 255 255 255 255 255 255 255 255 255 255 255 48 48 49 48 52 50 48 48 49 48 52 50 48 48 49 48 52 50 48 48 49 48 52 50 48 48 49 48 52 50 48 48 49 48 52 50 48 48 49 48 52 50 48 48 49 48 52 50 48 48 49 48 52 50 48 48 49 48 52 50 48 48 49 48 52 50 48 48 49 48 52 50 48 48 49 48 52 50 48 48 49 48 52 50 48 48 49 48 52 50 48 48 49 48 52 50 48 48 49 48 52 50 48 48 49 48 52 50 48 48 49 48 52 50 48 48 49 48 52 50 48 48 49 48 52 50 48 48 49 48 52 50 48 48 49 48 52 50 48 48 49 48 52 50 255 255 255 255 255 255 255 255 255 255 255 255 255 255 255 255 255 255 255 255 255 255 255 255 255 255 255 255 255 255 255 255 255 255 255 255 255 255 255 255 255 255 255 255 255 255 255 255 48 48 49 48 52 50 48 48 49 48 52 50 48 48 49 48 52 50 48 48 49 48 52 50 48 48 49 48 52 50 48 48 49 48 52 50 48 48 49 48 52 50 48 48 49 48 52 50 48 48 49 48 52 50 48 48 49 48 52 50 48 48 49 48 52 50 48 48 49 48 52 50 48 48 49 48 52 50 48 48 49 48 52 50 48 48 49 48 52 50 48 48 49 48 52 50 48 48 49 48 52 50 48 48 49 48 52 50 48 48 49 48 52 50 48 48 49 48 52 50 48 48 49 48 52 50 48 48 49 48 52 50 48 48 49 48 52 50 48 48 49 48 52 50 255 255 255 255 255 255 255 255 255 255 255 255 255 255 255 255 255 255 255 255 255 255 255 255 255 255 255 255 255 255 255 255 255 255 255 255 255 255 255 255 255 255 255 255 255 255 255 255 48 48 49 48 52 50 48 48 49 48 52 50 48 48 49 48 52 50 48 48 49 48 52 50 48 48 49 48 52 50 48 48 49 48 52 50 48 48 49 48 52 50 48 48 49 48 52 50 48 48 49 48 52 50 48 48 49 48 52 50 48 48 49 48 52 50 48 48 49 48 52 50 48 48 49 48 52 50 48 48 49 48 52 50 48 48 49 48 52 50 48 48 49 48 52 50 48 48 49 48 52 50 48 48 49 48 52 50 48 48 49 48 52 50 48 48 49 48 52 50 48 48 49 48 52 50 48 48 49 48 52 50 48 48 49 48 52 50 48 48 49 48 52 50 48 48 49 48 52 50 48 48 49 48 52 50 48 48 49 48 52 50 48 48 49 48 52 50 48 48 49 48 52 50 48 48 49 48 52 50 48 48 49 48 52 50 48 48 49 48 52 50 48 48 49 48 52 50 48 48 49 48 52 50 48 48 49 48 52 50 48 48 49 48 52 50 48 48 49 48 52 50 48 48 49 48 52 50 48 48 49 48 52 50 48 48 49 48 52 50 48 48 49 48 52 50 48 48 49 48 52 50 48 48 49 48 52 50 48 48 49 48 52 50 48 48 49 48 52 50 48 48 49 48 52 50 48 48 49 48 52 50 48 48 49 48 52 50 48 48 49 48 52 50 48 48 49 48 52 50 48 48 49 48 52 50 48 48 49 48 52 50 48 48 49 48 52 50 48 48 49 48 52 50 48 48 49 48 52 50 48 48 49 48 52 50 48 48 49 48 52 50 48 48 49 48 52 50 48 48 49 48 52 50 48 48 49 48 52 50 48 48 49 48 52 50 48 48 49 48 52 50 48 48 49 48 52 50 48 48 49 48 52 50 48 48 49 48 52 50 48 48 49 48 52 50 48 48 49 48 52 50 48 48 49 48 52 50 48 48 49 48 52 50 48 48 49 48 52 50 48 48 49 48 52 50 48 48 49 48 52 50 48 48 49 48 52 50 48 48 49 48 52 50 48 48 49 48 52 50 48 48 49 48 52 50 48 48 49 48 52 50 48 48 49 48 52 50 48 48 49 48 52 50 48 48 49 48 52 50 48 48 49 48 52 50 48 48 49 48 52 50 48 48 49 48 52 50 48 48 49 48 52 50 48 48 49 48 52 50 48 48 49 48 52 50 48 48 49 48 52 50 48 48 49 48 52 50 48 48 49 48 52 50 48 48 49 48 52 50 48 48 49 48 52 50 48 48 49 48 52 50 48 48 49 48 52 50 48 48 49 48 52 50 48 48 49 48 52 50 48 48 49 48 52 50 48 48 49 48 52 50 48 48 49 48 52 50 48 48 49 48 52 50 48 48 49 48 52 50 48 48 49 48 52 50 48 48 49 48 52 50 48 48 49 48 52 50 48 48 49 48 52 50 48 48 49 48 52 50 48 48 49 48 52 50 48 48 49 48 52 50 48 48 49 48 52 50 48 48 49 48 52 50 48 48 49 48 52 50 48 48 49 48 52 50 48 48 49 48 52 50 48 48 49 48 52 50 48 48 49 48 52 50 48 48 49 48 52 50 48 48 49 48 52 50 48 48 49 48 52 50 48 48 49 48 52 50 48 48 49 48 52 50 48 48 49 48 52 50 48 48 49 48 52 50 48 48 49 48 52 50 48 48 49 48 52 50 48 48 49 48 52 50 48 48 49 48 52 50 48 48 49 48 52 50 48 48 49 48 52 50 48 48 49 48 52 50 48 48 49 48 52 50 48 48 49 48 52 50 48 48 49 48 52 50 48 48 49 48 52 50 48 48 49 48 52 50 48 48 49 48 52 50 48 48 49 48 52 50 48 48 49 48 52 50 48 48 49 48 52 50 48 48 49 48 52 50 48 48 49 48 52 50 48 48 49 48 52 50 48 48 49 48 52 50 48 48 49 48 52 50 48 48 49 48 52 50 48 48 49 48 52 50 48 48 49 48 52 50 48 48 49 48 52 50 48 48 49 48 52 50 48 48 49 48 52 50 48 48 49 48 52 50 48 48 49 48 52 50 48 48 49 48 52 50 48 48 49 48 52 50 48 48 49 48 52 50 48 48 49 48 52 50 48 48 49 48 52 50 48 48 49 48 52 50 48 48 49 48 52 50 48 48 49 48 52 50 48 48 49 48 52 50 48 48 49 48 52 50 48 48 49 48 52 50 48 48 49 48 52 50 48 48 49 48 52 50 48 48 49 48 52 50 48 48 49 48 52 50 48 48 49 48 52 50 48 48 49 48 52 50 48 48 49 48 52 50 48 48 49 48 52 50 48 48 49 48 52 50 48 48 49 48 52 50 48 48 49 48 52 50 48 48 49 48 52 50 48 48 49 48 52 50 48 48 49 48 52 50 48 48 49 48 52 50 48 48 49 48 52 50 48 48 49 48 52 50 48 48 49 48 52 50 48 48 49 48 52 50 48 48 49 48 52 50 48 48 49 48 52 50 